<svg version="1.0" xmlns="http://www.w3.org/2000/svg"
 width="980.000000pt" height="980.000000pt" viewBox="0 0 980.000000 980.000000"
 preserveAspectRatio="xMidYMid meet">

<g transform="translate(0.000000,980.000000) scale(0.100000,-0.100000)"
fill="#FFFFFF" stroke="none">
<path d="M694 9786 c-122 -38 -263 -156 -318 -264 -66 -130 -55 -346 23 -462
47 -70 138 -155 197 -184 l54 -27 1 -892 c0 -1244 16 -2801 29 -2925 22 -213
98 -537 190 -812 153 -458 344 -821 653 -1236 l97 -132 0 -669 0 -670 78 -75
c163 -158 482 -363 887 -568 1009 -513 2199 -671 3335 -444 605 120 1102 314
1675 652 225 133 505 334 562 403 8 10 13 219 18 694 l7 680 100 134 c366 494
597 978 741 1556 96 381 124 663 114 1125 -7 303 -16 409 -53 610 -130 711
-420 1359 -849 1895 -604 756 -1389 1263 -2322 1500 -374 95 -629 121 -1118
112 -419 -7 -606 -32 -970 -127 -1002 -262 -1878 -890 -2462 -1765 -98 -147
-162 -257 -282 -487 -51 -98 -94 -178 -97 -178 -2 0 -4 361 -4 803 l0 802 63
40 c80 52 174 147 212 216 30 54 30 54 30 219 0 164 0 165 -30 220 -64 118
-197 221 -330 256 -62 17 -177 17 -231 0z m191 -339 c113 -64 116 -218 5 -274
-80 -41 -149 -22 -200 55 -42 64 -42 118 2 168 67 76 122 91 193 51z m4260 13
c515 -35 988 -161 1452 -385 416 -201 747 -437 1073 -764 514 -515 853 -1114
1028 -1816 81 -323 113 -589 113 -940 0 -433 -57 -805 -186 -1205 -306 -949
-983 -1760 -1870 -2242 -445 -242 -912 -387 -1450 -450 -170 -20 -665 -17
-845 5 -716 88 -1318 325 -1876 739 -907 674 -1459 1641 -1580 2771 -20 182
-22 559 -5 732 109 1101 638 2063 1506 2740 745 581 1709 879 2640 815z
m-3067 -7078 c366 -308 597 -462 953 -637 448 -220 958 -370 1414 -415 301
-30 803 -22 1042 15 854 134 1562 460 2213 1018 l135 116 3 -390 c1 -243 -2
-405 -8 -429 -9 -32 -24 -48 -100 -101 -252 -179 -739 -442 -1040 -562 -401
-161 -814 -261 -1290 -314 -229 -25 -788 -25 -1005 0 -455 53 -898 158 -1240
293 -165 66 -554 254 -710 343 -178 103 -376 232 -421 276 -24 22 -47 58 -55
80 -13 42 -27 805 -14 805 3 0 59 -44 123 -98z"/>
<path d="M3315 8164 c-138 -15 -311 -67 -446 -134 -312 -158 -549 -415 -739
-805 -87 -178 -118 -255 -215 -530 -104 -297 -108 -318 -103 -590 5 -214 7
-236 32 -320 74 -243 208 -386 365 -386 110 -1 181 57 181 148 0 73 -30 114
-122 167 -30 17 -56 42 -72 69 -42 74 -51 136 -51 362 l0 210 63 182 c105 305
243 616 342 767 59 91 194 234 302 320 153 123 328 193 510 203 l98 6 34 -36
c60 -63 83 -175 50 -238 -8 -17 -55 -80 -102 -139 -337 -421 -612 -1121 -741
-1885 -54 -317 -73 -613 -75 -1125 -1 -425 6 -510 48 -572 76 -113 235 -100
270 22 4 14 11 288 16 610 10 635 14 695 65 996 152 884 422 1512 825 1914
236 237 475 368 775 427 126 24 435 24 558 0 188 -38 420 -143 583 -265 515
-385 881 -1163 1024 -2176 43 -311 53 -496 54 -1026 1 -278 5 -513 10 -522 13
-28 97 -78 131 -78 50 0 131 46 149 85 27 55 35 208 36 610 0 573 -18 823 -86
1185 -143 764 -404 1402 -747 1828 -91 113 -97 123 -97 167 0 44 20 128 39
163 18 35 64 52 135 52 160 0 347 -67 504 -182 90 -65 275 -256 331 -342 102
-157 248 -489 351 -801 l53 -160 5 -164 c5 -178 -7 -287 -39 -361 -25 -56 -50
-83 -116 -126 -58 -37 -67 -51 -76 -109 -9 -58 10 -114 50 -152 33 -31 38 -33
111 -33 97 0 140 19 208 91 85 91 137 201 175 369 26 116 35 314 20 420 -47
322 -277 923 -459 1199 -157 239 -358 425 -583 541 -197 101 -381 144 -589
138 -149 -4 -179 -17 -278 -112 -46 -44 -74 -82 -101 -138 l-38 -77 -44 30
c-63 43 -264 143 -392 196 -336 137 -762 146 -1149 22 -102 -32 -354 -152
-448 -212 l-55 -36 -32 70 c-57 123 -167 219 -283 247 -55 13 -171 21 -225 16z"/>
<path d="M4137 6186 c-133 -49 -210 -162 -211 -308 0 -66 5 -85 32 -141 76
-155 243 -219 407 -157 67 26 149 100 178 162 73 155 10 335 -145 418 -54 29
-75 34 -143 37 -52 2 -93 -2 -118 -11z"/>
<path d="M5437 6180 c-67 -26 -108 -60 -150 -122 -45 -69 -71 -155 -62 -211
10 -68 61 -162 111 -206 65 -57 125 -83 204 -89 61 -4 76 -1 132 25 76 36 138
94 175 165 49 93 33 236 -36 330 -36 49 -95 93 -151 113 -59 21 -164 18 -223
-5z"/>
<path d="M4779 4890 c-210 -20 -413 -151 -491 -316 -30 -64 -33 -77 -33 -169
0 -88 3 -107 27 -158 51 -107 170 -211 312 -270 39 -16 75 -33 80 -38 17 -15
-45 -68 -119 -104 -85 -41 -195 -72 -290 -80 -114 -11 -175 -71 -175 -171 0
-141 136 -188 375 -130 163 40 284 96 380 175 27 23 54 41 58 41 5 0 32 -21
60 -46 159 -143 541 -239 675 -170 71 37 94 139 50 218 -30 53 -70 74 -153 82
-95 10 -206 40 -290 81 -71 34 -132 86 -121 103 3 5 33 20 67 32 34 13 94 44
133 70 223 147 282 344 168 563 -59 114 -198 220 -342 261 -51 14 -240 38
-279 35 -9 -1 -50 -5 -92 -9z m177 -330 c131 -17 231 -65 255 -122 11 -26 10
-35 -6 -64 -22 -41 -94 -89 -155 -103 -64 -15 -204 -13 -281 3 -118 25 -189
76 -189 136 0 52 110 129 213 149 57 12 80 12 163 1z"/>
<path d="M1914 3911 c-22 -10 -56 -37 -76 -59 -32 -36 -38 -49 -38 -88 0 -99
63 -158 362 -337 617 -372 1337 -643 2008 -756 184 -31 488 -44 897 -38 398 6
441 10 743 73 627 130 1263 381 1830 722 339 203 400 274 340 391 -22 45 -81
97 -116 104 -33 6 -111 -32 -274 -135 -643 -405 -1336 -673 -2065 -800 -123
-21 -157 -23 -620 -23 -428 0 -504 2 -600 18 -467 77 -979 236 -1425 441 -236
109 -413 206 -736 403 -166 101 -180 106 -230 84z"/>
<path d="M1072 1611 c-67 -25 -207 -112 -328 -202 -404 -303 -663 -679 -728
-1059 -33 -192 -19 -257 66 -316 33 -23 52 -29 94 -29 47 0 57 4 89 35 39 38
65 107 65 176 0 76 47 234 105 350 127 258 314 448 692 703 152 102 173 126
173 192 0 61 -19 99 -65 134 -46 35 -97 40 -163 16z"/>
<path d="M8600 1619 c-63 -26 -100 -85 -100 -158 0 -65 21 -90 158 -182 288
-195 454 -340 583 -512 126 -169 196 -334 223 -535 18 -128 31 -160 81 -197
71 -55 156 -40 218 38 28 36 32 50 35 112 10 186 -97 501 -245 723 -113 170
-402 442 -633 595 -162 108 -258 142 -320 116z"/>
</g>
</svg>
